<?xml version="1.0" encoding="UTF-8"?>
<svg version="1.1" xmlns="http://www.w3.org/2000/svg" width="679" height="485">
<path d="M0 0 C224.07 0 448.14 0 679 0 C679 160.05 679 320.1 679 485 C454.93 485 230.86 485 0 485 C0 324.95 0 164.9 0 0 Z " fill="#110F18" transform="translate(0,0)"/>
<path d="M0 0 C15.18 0 30.36 0 46 0 C47.32 3.63 48.64 7.26 50 11 C50.77302352 12.8827628 51.5607368 14.75970202 52.375 16.625 C54.48867866 21.63108104 56.37817176 26.69069223 58.1875 31.8125 C58.43741699 32.51777832 58.68733398 33.22305664 58.94482422 33.94970703 C60.07051039 37.17170816 61.09807234 40.35998319 61.99609375 43.65625 C62.98370709 46.94573257 64.25038845 49.66976301 65.875 52.6875 C68.5038052 57.77881129 70.40848068 62.82298311 72.04296875 68.30859375 C72.90851551 71.04008576 72.90851551 71.04008576 74.48828125 73.4140625 C76.30005727 76.51327626 77.09579417 79.46761011 78 82.9375 C79.22174358 87.6157598 80.53100921 91.81834217 83 96 C85.58414426 96.96906827 85.58414426 96.96906827 88 97 C88.11472656 96.03320312 88.22945312 95.06640625 88.34765625 94.0703125 C88.99325183 89.561355 90.19314477 85.25019651 91.4375 80.875 C91.65470703 80.08996094 91.87191406 79.30492187 92.09570312 78.49609375 C92.95202445 75.44625262 93.79786671 72.48403565 95.01953125 69.55859375 C96.55537798 65.55070687 97.32482525 61.37200944 98.25 57.1875 C99.77405122 50.50631738 101.51043251 44.11200312 104.0625 37.75 C107.05256988 30.29236933 108.85873169 22.75864182 110.57080078 14.92285156 C111.19644168 12.11992339 111.89612389 9.34020696 112.625 6.5625 C112.84414063 5.71816406 113.06328125 4.87382813 113.2890625 4.00390625 C114 2 114 2 116 0 C118.10073853 -0.24050903 118.10073853 -0.24050903 120.72509766 -0.22705078 C121.70596344 -0.22689972 122.68682922 -0.22674866 123.69741821 -0.22659302 C124.75891083 -0.21627045 125.82040344 -0.20594788 126.9140625 -0.1953125 C128.54122696 -0.19106766 128.54122696 -0.19106766 130.20126343 -0.18673706 C133.67595313 -0.17551578 137.15038782 -0.15040762 140.625 -0.125 C142.97655879 -0.11497272 145.3281216 -0.10584643 147.6796875 -0.09765625 C153.45321244 -0.07557011 159.22658801 -0.04207345 165 0 C165 1.98 165 3.96 165 6 C164.34 6 163.68 6 163 6 C162.82984375 6.75023438 162.6596875 7.50046875 162.484375 8.2734375 C160.50129283 16.64879516 157.72498433 24.26502356 154.125 32.0625 C149.49572541 42.37398222 146.15131292 53.29355284 142.83544922 64.08422852 C140.67904405 71.09736261 138.34710239 78.04858185 136 85 C135.34 85 134.68 85 134 85 C133.8875293 85.83160645 133.77505859 86.66321289 133.65917969 87.52001953 C132.92768071 91.38179226 131.75768788 94.98462216 130.453125 98.6796875 C130.20004578 99.41011261 129.94696655 100.14053772 129.68621826 100.89309692 C128.87866267 103.22199803 128.0648107 105.54862835 127.25 107.875 C120.18146397 127.68811135 120.18146397 127.68811135 114.5625 147.9375 C113.33940794 153.03255205 111.73478313 157.93623802 110 162.875 C109.75064697 163.58906006 109.50129395 164.30312012 109.24438477 165.03881836 C105.49630393 175.50369607 105.49630393 175.50369607 103 178 C100.1156618 178.08865208 97.25537842 178.11521296 94.37109375 178.09765625 C93.07474754 178.09553383 93.07474754 178.09553383 91.75221252 178.09336853 C88.98060708 178.08775239 86.2090812 178.07519719 83.4375 178.0625 C81.5631522 178.05748708 79.68880315 178.05292381 77.81445312 178.04882812 C73.20960456 178.03777772 68.60481579 178.0205023 64 178 C63.36219841 176.74632553 62.72696074 175.49134652 62.09277344 174.23583984 C61.73874451 173.53711761 61.38471558 172.83839539 61.0199585 172.11849976 C59.52696979 169.01749494 58.39156112 165.87351652 57.25 162.625 C56.82203125 161.42101562 56.3940625 160.21703125 55.953125 158.9765625 C55 156 55 156 55 154 C54.34 154 53.68 154 53 154 C50.48711208 150.23066812 49.92153519 146.6897809 48.9765625 142.30078125 C47.98586651 138.95222879 46.6256923 136.18476177 45.02099609 133.10375977 C42.99982166 128.93913515 41.69802226 124.49286075 40.2890625 120.09179688 C38.78159639 115.59776483 36.99177889 112.72106088 34 109 C32.62879037 106.13000115 31.53401903 103.17151022 30.4375 100.1875 C30.00147461 99.03411133 30.00147461 99.03411133 29.55664062 97.85742188 C28.69560223 95.57480332 27.84703959 93.28784456 27 91 C26.42910838 89.47498958 25.85753891 87.95023267 25.28515625 86.42578125 C24.64900391 84.73001953 24.64900391 84.73001953 24 83 C23.01 83 22.02 83 21 83 C20.26878915 85.31187089 19.53960851 87.62433758 18.8125 89.9375 C18.58763916 90.65244629 18.36277832 91.36739258 18.13110352 92.10400391 C16.71907189 96.62073576 15.36870891 101.1507718 14.06274414 105.69921875 C12.30684656 111.80955035 10.44572526 117.73193053 7.96069336 123.59448242 C5.5491144 129.63292904 3.98652269 136.00363443 2.28125 142.26953125 C1.84232422 143.87924805 1.84232422 143.87924805 1.39453125 145.52148438 C0.79323202 147.73368786 0.19695565 149.94726215 -0.39453125 152.16210938 C-0.68714844 153.22880859 -0.97976563 154.29550781 -1.28125 155.39453125 C-1.66893555 156.83082886 -1.66893555 156.83082886 -2.06445312 158.29614258 C-2.37318359 159.18841553 -2.68191406 160.08068848 -3 161 C-3.46853394 162.39581299 -3.46853394 162.39581299 -3.9465332 163.81982422 C-6.42106 166.44704147 -7.15220942 166.37321078 -10.6550293 166.56762695 C-12.62826955 166.56683481 -14.60161886 166.53855438 -16.57421875 166.48828125 C-17.61318802 166.48120651 -18.65215729 166.47413177 -19.72261047 166.46684265 C-23.04496909 166.43882688 -26.36564978 166.37607264 -29.6875 166.3125 C-31.93812673 166.28742653 -34.18877983 166.26461171 -36.43945312 166.24414062 C-41.96020908 166.18897694 -47.47998469 166.10527911 -53 166 C-52.40076099 160.7429473 -51.64432278 156.44428123 -49.625 151.5 C-48.99464844 149.93765625 -48.99464844 149.93765625 -48.3515625 148.34375 C-47.90554687 147.2403125 -47.45953125 146.136875 -47 145 C-46.51633225 143.71083109 -46.03601347 142.42040205 -45.55859375 141.12890625 C-43.6913827 136.11407656 -41.60591555 131.1935715 -39.51757812 126.26757812 C-37.69009931 121.89198069 -36.22851062 117.58002345 -35 113 C-34.505 111.515 -34.505 111.515 -34 110 C-33.34 110 -32.68 110 -32 110 C-31.90203125 109.44054687 -31.8040625 108.88109375 -31.703125 108.3046875 C-29.97150927 99.01964454 -27.66580015 89.72264053 -24 81 C-23.34 81 -22.68 81 -22 81 C-21.99742187 80.42636719 -21.99484375 79.85273438 -21.9921875 79.26171875 C-21.57405738 70.07679385 -18.58437752 61.85457266 -15.71484375 53.20849609 C-14.30523509 48.85353711 -13.1356478 44.43301115 -12 40 C-11.34 40 -10.68 40 -10 40 C-9.98582031 39.41476563 -9.97164063 38.82953125 -9.95703125 38.2265625 C-9.26925366 25.84656594 -5.56576475 11.13152949 0 0 Z " fill="#C4C4C3" transform="translate(295,103)"/>
<path d="M0 0 C7.86867033 -0.09383423 15.73720284 -0.16432688 23.60629654 -0.20724869 C27.26263833 -0.22787805 30.91858981 -0.25572588 34.57470703 -0.30175781 C51.10286278 -0.50455908 66.90299001 -0.32537045 83 4 C83 4.66 83 5.32 83 6 C83.721875 6.11859375 84.44375 6.2371875 85.1875 6.359375 C92.14244908 7.94355785 98.43238587 11.51886304 103 17 C103.64388672 17.75216797 103.64388672 17.75216797 104.30078125 18.51953125 C111.22102494 27.23618038 111.47815565 37.27181196 111.375 48 C111.38660156 49.2065625 111.39820313 50.413125 111.41015625 51.65625 C111.38624744 58.98828527 110.54924354 65.13516643 108 72 C107.75443359 72.72268066 107.50886719 73.44536133 107.25585938 74.18994141 C106.55484925 76.24310318 105.81527097 78.27782197 105.0625 80.3125 C104.82337891 80.98861328 104.58425781 81.66472656 104.33789062 82.36132812 C102.77917362 86.57685566 100.94280566 89.62905135 98 93 C97.1799765 94.05801351 96.36790061 95.12221919 95.5625 96.19140625 C95.14226562 96.74376953 94.72203125 97.29613281 94.2890625 97.86523438 C93.42780484 98.99922363 92.5684357 100.13464963 91.7109375 101.27148438 C89.32615516 104.39876797 86.95595549 107.39442716 84 110 C83.34 110 82.68 110 82 110 C82 110.66 82 111.32 82 112 C74.3635392 118.41462707 66.58359931 124.01655939 57 127 C55.80246094 127.41765625 54.60492188 127.8353125 53.37109375 128.265625 C38.33404885 133.50130196 24.63797989 135.15875337 8.71875 135.1328125 C7.2542723 135.13348718 5.7897947 135.13445857 4.32531738 135.13571167 C1.27611206 135.1371772 -1.77306376 135.13506865 -4.82226562 135.13037109 C-8.73759517 135.12463375 -12.65285676 135.1279851 -16.5681839 135.13394356 C-19.58264688 135.13754568 -22.59709355 135.13641291 -25.61155701 135.13381577 C-27.05651355 135.13314762 -28.50147156 135.13397102 -29.94642639 135.13629532 C-31.95451837 135.13882042 -33.96261554 135.13429284 -35.97070312 135.12939453 C-37.11381958 135.12859894 -38.25693604 135.12780334 -39.43469238 135.12698364 C-42 135 -42 135 -43 134 C-42.48348089 128.30331821 -40.9793777 123.01840831 -39.3125 117.5625 C-38.91756348 116.25611572 -38.91756348 116.25611572 -38.51464844 114.92333984 C-36.37612909 107.96871257 -33.93663492 101.16101712 -31.296875 94.3828125 C-30.10693176 91.27892441 -29.02488243 88.1616656 -28 85 C-27.34 85 -26.68 85 -26 85 C-25.87625 83.948125 -25.7525 82.89625 -25.625 81.8125 C-25 78 -25 78 -24.0859375 75.7578125 C-22.71286683 72.2708057 -21.86460699 68.69992864 -21 65.0625 C-19.85935108 60.29048831 -18.62567204 55.6375198 -17 51 C-16.34 51 -15.68 51 -15 51 C-14.91363281 50.34257812 -14.82726562 49.68515625 -14.73828125 49.0078125 C-12.21302651 31.91021617 -6.39226275 15.96959172 0 0 Z " fill="#293134" transform="translate(189,287)"/>
<path d="M0 0 C0 0.66 0 1.32 0 2 C0.845625 2.144375 1.69125 2.28875 2.5625 2.4375 C9.54877744 5.61308066 13.60313573 13.33692009 17 20 C20.34986275 29.89326132 18.05361057 42.40293822 15 52 C14.34 52 13.68 52 13 52 C12.5359375 53.7015625 12.5359375 53.7015625 12.0625 55.4375 C11 59 11 59 10 60 C7.76070114 60.09436529 5.5183825 60.11742327 3.27709961 60.11352539 C2.5746965 60.11367142 1.8722934 60.11381744 1.14860535 60.1139679 C-1.18351278 60.11326872 -3.515552 60.10547617 -5.84765625 60.09765625 C-7.46048438 60.09579208 -9.07331307 60.09436818 -10.68614197 60.09336853 C-14.93915357 60.08954323 -19.19213124 60.07971285 -23.44512939 60.06866455 C-27.7817743 60.05845069 -32.11842467 60.05387096 -36.45507812 60.04882812 C-44.97006769 60.03809059 -53.48502963 60.02101403 -62 60 C-61.71086065 61.62037728 -61.41216348 63.23905127 -61.109375 64.85693359 C-60.94405273 65.75850189 -60.77873047 66.66007019 -60.60839844 67.58895874 C-60.13421057 70.13639035 -60.13421057 70.13639035 -58.25 72.2890625 C-50.34612706 76.98198706 -40.99606193 77.54387139 -32 76 C-29.97291596 75.05610897 -27.96595828 74.06536756 -26 73 C-24.68 73 -23.36 73 -22 73 C-22 72.34 -22 71.68 -22 71 C-19 69 -19 69 -15 69 C-13.47265625 70.46875 -13.47265625 70.46875 -12.0625 72.5 C-11.5571875 73.22703125 -11.051875 73.9540625 -10.53125 74.703125 C-9.77328125 75.84007812 -9.77328125 75.84007812 -9 77 C-8.4946875 77.71671875 -7.989375 78.4334375 -7.46875 79.171875 C-3.94449052 84.37994734 -3.94449052 84.37994734 -4.18359375 87.05078125 C-7.08296368 93.97320037 -16.62991302 98.15996338 -23.15234375 100.90625 C-33.74448799 104.73704358 -44.58988856 105.28911929 -55.75 105.125 C-56.9359375 105.11597656 -58.121875 105.10695313 -59.34375 105.09765625 C-62.22938907 105.07438497 -65.11457855 105.04169684 -68 105 C-68 104.34 -68 103.68 -68 103 C-68.60585938 103.00902344 -69.21171875 103.01804687 -69.8359375 103.02734375 C-77.50686037 102.75591109 -82.32956442 100.08833777 -88 95 C-93 89.39325843 -93 89.39325843 -93 86 C-93.66 86 -94.32 86 -95 86 C-101.19397749 74.41995513 -100.34661867 58.51824814 -97 46 C-95.26688028 41.83541526 -93.17974616 37.94403156 -91 34 C-90.39117264 32.62705732 -89.78643954 31.25228493 -89.1875 29.875 C-82.02618454 15.64078038 -67.4546719 5.46404013 -53 0 C-52.2884375 -0.29261719 -51.576875 -0.58523438 -50.84375 -0.88671875 C-37.28122278 -6.07387935 -12.79186234 -7.54391882 0 0 Z " fill="#293234" transform="translate(403,319)"/>
<path d="M0 0 C0.33 0.33 0.66 0.66 1 1 C-0.32491225 15.04038954 -4.74411561 27.23415786 -15 37 C-16.36164091 38.62249166 -17.69526965 40.26890063 -19 41.9375 C-21.83497756 45.53487193 -24.7105622 49.09160969 -27.625 52.625 C-30.84081775 56.52952483 -33.89850448 60.49958329 -36.80859375 64.63671875 C-37.20175781 65.08660156 -37.59492188 65.53648437 -38 66 C-38.66 66 -39.32 66 -40 66 C-40.40968018 66.88727783 -40.40968018 66.88727783 -40.82763672 67.79248047 C-41.9649125 69.93393145 -43.15280232 71.51407396 -44.7578125 73.3203125 C-45.29664063 73.93261719 -45.83546875 74.54492188 -46.390625 75.17578125 C-46.96296875 75.81902344 -47.5353125 76.46226562 -48.125 77.125 C-51.8400622 81.35108604 -55.52571168 85.57140073 -59 90 C-62.94289966 95.01671064 -67.14507125 99.79109731 -71.34570312 104.59130859 C-74.68275613 108.42342969 -77.8386474 112.31203904 -80.8046875 116.44140625 C-82 118 -82 118 -84.625 120.5625 C-89.86402149 125.93939047 -92.2215712 132.71490808 -94.625 139.6875 C-94.93421387 140.57526123 -95.24342773 141.46302246 -95.56201172 142.37768555 C-97.43646679 147.9117189 -98.73572777 153.22928699 -99.46875 159.03515625 C-100.57517713 165.20999592 -102.89063981 171.10667304 -105 177 C-105.66 177 -106.32 177 -107 177 C-106.97679687 177.62648437 -106.95359375 178.25296875 -106.9296875 178.8984375 C-106.91164062 179.71570313 -106.89359375 180.53296875 -106.875 181.375 C-106.85179687 182.18710937 -106.82859375 182.99921875 -106.8046875 183.8359375 C-107 186 -107 186 -109 188 C-111.16993713 188.24723816 -111.16993713 188.24723816 -113.89282227 188.24291992 C-114.91050186 188.24599655 -115.92818146 188.24907318 -116.97669983 188.25224304 C-118.07880295 188.24505753 -119.18090607 188.23787201 -120.31640625 188.23046875 C-121.44320297 188.23001053 -122.56999969 188.22955231 -123.73094177 188.2290802 C-126.11580456 188.22605536 -128.50066533 188.21816221 -130.88549805 188.20581055 C-134.55068909 188.18755882 -138.21562765 188.18530077 -141.88085938 188.18554688 C-144.19271053 188.18063173 -146.50455997 188.17480342 -148.81640625 188.16796875 C-149.9205336 188.16685593 -151.02466095 188.1657431 -152.1622467 188.16459656 C-153.17677414 188.15821671 -154.19130157 188.15183685 -155.23657227 188.14526367 C-156.13432877 188.14145187 -157.03208527 188.13764008 -157.95704651 188.13371277 C-160 188 -160 188 -161 187 C-162.07182083 178.06815975 -158.38316506 168.70862637 -154.38671875 160.8125 C-153.12898773 158.26160891 -152.53611057 156.40250313 -152.125 153.625 C-151.16051736 148.21408894 -149.52528535 143.11432694 -147.81030273 137.9050293 C-146.56948584 134.07064572 -145.69597472 130.45016195 -145.1875 126.4375 C-144.314606 121.73790104 -142.2739053 119.84531177 -138.5546875 116.984375 C-135.30064733 114.45677193 -132.32466394 111.68282652 -129.3125 108.875 C-128.7661792 108.37178223 -128.2198584 107.86856445 -127.65698242 107.35009766 C-123.52022148 103.53087194 -119.53660614 99.58187441 -115.61328125 95.54296875 C-114.85402344 94.76566406 -114.09476563 93.98835938 -113.3125 93.1875 C-112.54550781 92.39730469 -111.77851563 91.60710937 -110.98828125 90.79296875 C-109 89 -109 89 -107 89 C-106.74412109 88.40638672 -106.48824219 87.81277344 -106.22460938 87.20117188 C-104.87835302 84.78134586 -103.53961388 83.52945289 -101.40625 81.78125 C-96.8490594 77.92326734 -92.68151468 73.7576807 -88.5 69.5 C-83.73736492 64.65061382 -78.94167776 59.9594748 -73.74414062 55.57421875 C-71.4610683 53.5135734 -69.58249519 51.20995775 -67.63542175 48.83682251 C-65.98775672 46.98624898 -64.26757839 45.43739409 -62.37426758 43.84130859 C-57.69054881 39.79294518 -53.35544885 35.44643402 -49.01171875 31.0390625 C-47.3197917 29.33450613 -45.62773057 27.63008283 -43.93554688 25.92578125 C-41.2958615 23.26115357 -38.65781384 20.5949413 -36.0222168 17.92626953 C-33.46054937 15.33453169 -30.89280657 12.74893924 -28.32421875 10.1640625 C-27.53359543 9.35997955 -26.74297211 8.55589661 -25.9283905 7.72744751 C-25.19365005 6.98932831 -24.45890961 6.25120911 -23.7019043 5.49072266 C-23.05762985 4.83899078 -22.41335541 4.18725891 -21.7495575 3.51577759 C-16.65958508 -0.89406098 -6.40846275 -0.33728751 0 0 Z " fill="#C5C6C4" transform="translate(297,74)"/>
<path d="M0 0 C1.71123047 -0.00386719 1.71123047 -0.00386719 3.45703125 -0.0078125 C6.1875 0.125 6.1875 0.125 7.1875 1.125 C7.22830783 3.12458364 7.23004356 5.12545254 7.1875 7.125 C6.5275 7.125 5.8675 7.125 5.1875 7.125 C5.08308594 8.094375 4.97867188 9.06375 4.87109375 10.0625 C4.22021436 14.61064842 2.76267471 18.80099938 1.25 23.125 C-3.02158908 35.51364766 -5.53165197 45.29198696 -1.859375 58.2265625 C-0.97092257 60.32851179 -0.97092257 60.32851179 1.296875 60.8984375 C1.92078125 60.97320312 2.5446875 61.04796875 3.1875 61.125 C3.97125 60.135 4.755 59.145 5.5625 58.125 C6.42875 57.135 7.295 56.145 8.1875 55.125 C8.8475 55.125 9.5075 55.125 10.1875 55.125 C10.44917969 54.55265625 10.71085937 53.9803125 10.98046875 53.390625 C12.26931847 50.97142489 13.80389302 49.02616007 15.5 46.875 C19.8689648 40.73483326 21.69913242 34.18463112 23.66748047 27.0078125 C24.3972465 24.3655798 25.19939993 21.74649976 26 19.125 C26.39684067 17.79196613 26.79314015 16.45876989 27.1875 15.125 C27.8475 15.125 28.5075 15.125 29.1875 15.125 C29.105 14.320625 29.0225 13.51625 28.9375 12.6875 C29.27043982 7.94310753 31.08914524 4.34044483 33.1875 0.125 C39.15822986 0.01328156 45.04556353 0.15526112 51 0.625 C57.52678457 1.09358966 64.01930508 1.23684895 70.5625 1.25 C71.47749268 1.25451172 72.39248535 1.25902344 73.33520508 1.26367188 C78.36290834 1.2527133 83.24765738 0.9673669 88.23632812 0.34765625 C91.89301514 -0.06962335 95.51293042 0.0666735 99.1875 0.125 C99.1875 0.455 99.1875 0.785 99.1875 1.125 C98.01832031 1.23457031 96.84914063 1.34414062 95.64453125 1.45703125 C94.09628806 1.61654721 92.54811442 1.77673914 91 1.9375 C89.84661133 2.04288086 89.84661133 2.04288086 88.66992188 2.15039062 C87.91904297 2.23095703 87.16816406 2.31152344 86.39453125 2.39453125 C85.7085083 2.46260986 85.02248535 2.53068848 84.31567383 2.60083008 C79.57277867 3.76900673 76.21182681 6.85284519 72.84375 10.24169922 C72.01939453 11.06620575 71.19503906 11.89071228 70.34570312 12.74020386 C69.46849609 13.62773346 68.59128906 14.51526306 67.6875 15.4296875 C66.31754883 16.80388351 66.31754883 16.80388351 64.91992188 18.20584106 C62.49749491 20.63587719 60.08112741 23.07185165 57.66601562 25.50915527 C55.21844475 27.97713604 52.76526041 30.43952235 50.3125 32.90234375 C45.94460079 37.28952489 41.58235787 41.68228947 37.2219696 46.07693481 C34.88267036 48.4318667 32.53588829 50.77913837 30.1875 53.125 C29.46949219 53.85460937 28.75148438 54.58421875 28.01171875 55.3359375 C27.30660156 56.05007812 26.60148437 56.76421875 25.875 57.5 C25.17761719 58.20898438 24.48023438 58.91796875 23.76171875 59.6484375 C21.69426292 61.63746177 19.59834438 63.51328585 17.42578125 65.3828125 C12.96338689 69.2568566 8.82637117 73.41073955 4.6875 77.625 C-0.07735794 82.47664952 -4.89670472 87.14985357 -10.05371094 91.58447266 C-12.92423357 94.09876996 -15.51892069 96.86062491 -18.1484375 99.62109375 C-19.8125 101.125 -19.8125 101.125 -21.8125 101.125 C-22.06773437 101.70636719 -22.32296875 102.28773438 -22.5859375 102.88671875 C-26.03196657 109.17517307 -32.65875428 113.97748084 -38.05078125 118.58203125 C-39.71065811 120.03580366 -41.27183981 121.54641586 -42.8125 123.125 C-44.2975 122.63 -44.2975 122.63 -45.8125 122.125 C-46.59277344 120.03393555 -46.59277344 120.03393555 -47.171875 117.26171875 C-47.39713867 116.23860596 -47.62240234 115.21549316 -47.85449219 114.16137695 C-48.08813477 113.05624756 -48.32177734 111.95111816 -48.5625 110.8125 C-51.00801362 99.90554058 -54.19381341 89.53876116 -58.09130859 79.07397461 C-59.64110633 74.8857433 -60.95429798 70.84419375 -61.6875 66.4375 C-62.58626132 61.71015701 -64.09492536 57.41163698 -65.80078125 52.921875 C-67.43616172 48.40090041 -68.61577788 43.77734574 -69.8125 39.125 C-70.12380859 38.02478516 -70.12380859 38.02478516 -70.44140625 36.90234375 C-73.67215766 25.17674948 -69.98145453 13.81866706 -64.8125 3.125 C-62.8125 1.125 -62.8125 1.125 -60.71417236 0.89122009 C-59.4156131 0.90240623 -59.4156131 0.90240623 -58.09082031 0.91381836 C-57.10929993 0.91719711 -56.12777954 0.92057587 -55.11651611 0.92405701 C-53.51970001 0.94424644 -53.51970001 0.94424644 -51.890625 0.96484375 C-50.25151154 0.9726461 -50.25151154 0.9726461 -48.57928467 0.98060608 C-45.0735568 0.99846821 -41.56811678 1.02962284 -38.0625 1.0625 C-34.57119258 1.09015154 -31.07992866 1.11488823 -27.58856201 1.13368225 C-25.4137597 1.14589587 -23.23897923 1.16345656 -21.06427002 1.18699646 C-13.9468601 1.23375417 -7.09034605 -0.01620651 0 0 Z " fill="#2A3337" transform="translate(197.8125,72.875)"/>
<path d="M0 0 C3.36016893 1.12005631 4.69064913 2.37211797 7 5 C7 5.66 7 6.32 7 7 C7.66 7 8.32 7 9 7 C9 7.66 9 8.32 9 9 C9.58265625 9.25910156 10.1653125 9.51820313 10.765625 9.78515625 C13.16343838 11.08886248 14.81756794 12.51745533 16.75 14.4375 C17.36359375 15.03433594 17.9771875 15.63117188 18.609375 16.24609375 C20 18 20 18 20 21 C21.051875 21.0928125 21.051875 21.0928125 22.125 21.1875 C26.0332733 22.29201202 28.00357248 24.28230992 31 27 C30.46465288 31.50515188 28.74051417 34.19500166 26.0625 37.8125 C25.35222656 38.78832031 24.64195312 39.76414062 23.91015625 40.76953125 C23.27980469 41.50558594 22.64945313 42.24164063 22 43 C21.34 43 20.68 43 20 43 C20 43.66 20 44.32 20 45 C19.34 45 18.68 45 18 45 C17.58790283 45.86939209 17.58790283 45.86939209 17.16748047 46.75634766 C16.02456314 48.9527948 14.75901687 50.88564191 13.3203125 52.8984375 C12.80339844 53.62546875 12.28648437 54.3525 11.75390625 55.1015625 C11.21636719 55.85179687 10.67882812 56.60203125 10.125 57.375 C9.06435807 58.86144708 8.00444824 60.34841684 6.9453125 61.8359375 C6.4407251 62.54427734 5.9361377 63.25261719 5.41625977 63.98242188 C4.15436565 65.78009348 2.92939893 67.5947508 1.72265625 69.4296875 C0.27280947 71.59295094 -1.13071708 73.21973055 -3 75 C-3.33 75.66 -3.66 76.32 -4 77 C-4.66 77 -5.32 77 -6 77 C-6.268125 77.556875 -6.53625 78.11375 -6.8125 78.6875 C-8.10899496 81.21225334 -9.42476323 83.63714484 -11 86 C-11.66 86 -12.32 86 -13 86 C-13.2371875 86.71027344 -13.474375 87.42054688 -13.71875 88.15234375 C-15.21392651 91.4754647 -17.13186216 93.79839106 -19.5 96.5625 C-22.09504152 99.59987815 -24.40638632 102.31909884 -26 106 C-26.66 106 -27.32 106 -28 106 C-28.20625 106.680625 -28.4125 107.36125 -28.625 108.0625 C-30.19362957 111.41366318 -32.19098762 113.72649246 -34.66015625 116.44921875 C-36.09089081 117.97649454 -36.09089081 117.97649454 -37 120 C-37.66 120 -38.32 120 -39 120 C-39.28875 120.804375 -39.5775 121.60875 -39.875 122.4375 C-41 125 -41 125 -43 126 C-45.45732897 126.12279203 -47.88530415 126.18831001 -50.34375 126.203125 C-51.43109436 126.21167511 -51.43109436 126.21167511 -52.54040527 126.22039795 C-54.07363424 126.22984603 -55.60688349 126.23638117 -57.14013672 126.24023438 C-59.49091677 126.24996241 -61.84083065 126.2809949 -64.19140625 126.3125 C-65.6796823 126.31902788 -67.16796461 126.32427919 -68.65625 126.328125 C-69.36148804 126.3404718 -70.06672607 126.3528186 -70.79333496 126.36553955 C-72.77539062 126.35644531 -72.77539062 126.35644531 -76 126 C-80.77950672 118.83073992 -80.32825945 109.43230593 -80.65844727 101.07006836 C-80.72691255 96.90132073 -80.72691255 96.90132073 -82 93 C-82.20616153 91.6016092 -82.3663528 90.1962362 -82.5 88.7890625 C-82.62375 87.53996094 -82.62375 87.53996094 -82.75 86.265625 C-82.8325 85.39421875 -82.915 84.5228125 -83 83.625 C-83.16395529 81.90859301 -83.33053122 80.19243389 -83.5 78.4765625 C-83.5721875 77.71424316 -83.644375 76.95192383 -83.71875 76.16650391 C-83.99365812 74.04885229 -84.47808546 72.06780124 -85 70 C-85.06624507 68.25113019 -85.08552595 66.49997252 -85.0625 64.75 C-85.05347656 63.85796875 -85.04445313 62.9659375 -85.03515625 62.046875 C-85.02355469 61.37140625 -85.01195312 60.6959375 -85 60 C-85.66 60 -86.32 60 -87 60 C-87.68368266 55.94017963 -88.34367683 51.87682558 -89 47.8125 C-89.28617187 46.11577148 -89.28617187 46.11577148 -89.578125 44.38476562 C-89.84882813 42.68803711 -89.84882813 42.68803711 -90.125 40.95703125 C-90.29257812 39.93585205 -90.46015625 38.91467285 -90.6328125 37.86254883 C-91.16487818 32.26559991 -91 26.62218206 -91 21 C-78.46 21 -65.92 21 -53 21 C-52.01606376 23.95180873 -51.83472149 26.03623739 -51.75390625 29.12109375 C-51.72232422 30.13252441 -51.69074219 31.14395508 -51.65820312 32.18603516 C-51.62662109 33.25901855 -51.59503906 34.33200195 -51.5625 35.4375 C-51.48619946 37.64213288 -51.40424662 39.846578 -51.31640625 42.05078125 C-51.26141968 43.53831909 -51.26141968 43.53831909 -51.20532227 45.0559082 C-50.92984266 49.00597788 -50.26138573 52.83367646 -49.4765625 56.7109375 C-48.26825009 65.05027395 -48.27628214 73.5857488 -48 82 C-46.68 82 -45.36 82 -44 82 C-43.814375 81.0409375 -43.814375 81.0409375 -43.625 80.0625 C-43.41875 79.381875 -43.2125 78.70125 -43 78 C-42.34 77.67 -41.68 77.34 -41 77 C-40.71125 76.195625 -40.4225 75.39125 -40.125 74.5625 C-39 72 -39 72 -36.9375 71 C-35.9784375 70.505 -35.9784375 70.505 -35 70 C-34.855625 69.236875 -34.71125 68.47375 -34.5625 67.6875 C-33.78743936 63.98443251 -31.6558977 62.6558977 -29 60 C-27.87929576 58.04282811 -26.92952771 56.0454903 -25.97265625 54.00390625 C-24.56219425 51.09801465 -22.93888679 48.58518239 -21 46 C-20.34 46 -19.68 46 -19 46 C-18.773125 45.278125 -18.54625 44.55625 -18.3125 43.8125 C-16.73594914 40.43417673 -14.69013425 38.56203262 -12 36 C-7.40143078 31.42848119 -6.55931505 26.3182236 -5.25 20.1875 C-4.91935547 18.71893555 -4.91935547 18.71893555 -4.58203125 17.22070312 C-4.04249069 14.81622891 -3.51561357 12.40969774 -3 10 C-2.34 10 -1.68 10 -1 10 C-0.67 6.7 -0.34 3.4 0 0 Z " fill="#283134" transform="translate(520,296)"/>
<path d="M0 0 C1.55557617 -0.00580078 1.55557617 -0.00580078 3.14257812 -0.01171875 C4.76776367 0.00568359 4.76776367 0.00568359 6.42578125 0.0234375 C7.48990234 0.01183594 8.55402344 0.00023437 9.65039062 -0.01171875 C18.56071395 0.02130283 25.50185216 1.45323679 32.1953125 7.671875 C36.41655999 12.39539751 38.31283676 17.13788081 38.0078125 23.5546875 C36.21794227 42.43911547 36.21794227 42.43911547 34.73828125 45.3984375 C34.07828125 45.3984375 33.41828125 45.3984375 32.73828125 45.3984375 C32.65191406 45.99011719 32.56554687 46.58179688 32.4765625 47.19140625 C31.4708364 52.84746219 30.24580829 55.59208134 25.73828125 59.3984375 C24.60887788 60.58175034 23.48415245 61.76953958 22.36328125 62.9609375 C19.07895249 66.24526626 15.92549254 68.38535515 11.73828125 70.3984375 C10.74828125 70.3984375 9.75828125 70.3984375 8.73828125 70.3984375 C8.24328125 71.8834375 8.24328125 71.8834375 7.73828125 73.3984375 C7.11179688 73.45902344 6.4853125 73.51960938 5.83984375 73.58203125 C5.02257812 73.66582031 4.2053125 73.74960937 3.36328125 73.8359375 C2.55117187 73.91714844 1.7390625 73.99835938 0.90234375 74.08203125 C-1.3044468 74.28933864 -1.3044468 74.28933864 -3.26171875 75.3984375 C-5.14810995 75.4833525 -7.0375039 75.5056305 -8.92578125 75.49609375 C-10.60800781 75.49125977 -10.60800781 75.49125977 -12.32421875 75.48632812 C-13.49984375 75.47794922 -14.67546875 75.46957031 -15.88671875 75.4609375 C-17.07007813 75.45642578 -18.2534375 75.45191406 -19.47265625 75.44726562 C-22.40239382 75.43545217 -25.33203147 75.41898008 -28.26171875 75.3984375 C-28.69960061 69.4870324 -27.78420995 65.61732519 -25.43798828 60.20996094 C-23.16523865 54.77762702 -21.48844492 49.12947835 -19.69921875 43.5234375 C-19.31314453 42.33363281 -18.92707031 41.14382813 -18.52929688 39.91796875 C-16.14013343 32.46963979 -14.08782531 25.00243202 -12.26171875 17.3984375 C-11.62121931 14.86901225 -10.94908671 12.35342267 -10.26171875 9.8359375 C-9.95234375 8.67964844 -9.64296875 7.52335937 -9.32421875 6.33203125 C-7.44132569 1.13330812 -5.46461829 0.0196957 0 0 Z " fill="#110F17" transform="translate(223.26171875,316.6015625)"/>
<path d="M0 0 C4.16659223 3.47216019 5.77690599 5.72105228 6.30859375 11.15234375 C6.67166004 21.81329039 4.58412021 29.26984973 -2.25 37.8125 C-6.3740305 41.09297881 -10.57192207 44.14128498 -15 47 C-15.7734375 47.51433594 -16.546875 48.02867187 -17.34375 48.55859375 C-24.58017545 52.81602406 -31.77254647 52.98280162 -40 52 C-44.39444398 50.81885562 -47.17873741 48.16655197 -49.9375 44.625 C-53.51906499 38.31293497 -52.98225931 30.43419916 -51.453125 23.53125 C-48.12192502 13.90778339 -40.03698858 4.69228253 -31 0 C-20.652142 -3.47435349 -10.08508785 -5.03259808 0 0 Z " fill="#C4C5C4" transform="translate(480,218)"/>
<path d="M0 0 C2.99880928 1.49940464 4.79369693 2.50615059 7.20703125 4.609375 C7.79419922 5.11726563 8.38136719 5.62515625 8.98632812 6.1484375 C9.58896484 6.67695313 10.19160156 7.20546875 10.8125 7.75 C11.40353516 8.26304687 11.99457031 8.77609375 12.60351562 9.3046875 C13.79836457 10.34187372 14.99172431 11.380778 16.18359375 12.42138672 C18.60333819 14.52435279 21.04518948 16.60096678 23.48950195 18.67529297 C25.76771241 20.6732839 27.85768352 22.85768352 30 25 C35.24009569 29.77364777 40.60224936 34.40616967 46 39 C45.62890625 40.921875 45.62890625 40.921875 45 43 C42.9375 44.25 42.9375 44.25 41 45 C41 45.66 41 46.32 41 47 C36.52941176 51 36.52941176 51 34 51 C34 51.66 34 52.32 34 53 C32.32464541 54.51984883 30.58294378 55.96706453 28.8125 57.375 C27.84957031 58.14585937 26.88664063 58.91671875 25.89453125 59.7109375 C24.0043135 61.20576557 22.10616477 62.6906342 20.19921875 64.1640625 C17.92744075 65.81176937 17.92744075 65.81176937 17 68 C15.9790625 68.5878125 15.9790625 68.5878125 14.9375 69.1875 C9.89776465 72.29712394 5.29435336 76.05846996 2 81 C1.34 81 0.68 81 0 81 C-2.22242394 61.78458074 -2.22242394 61.78458074 1.29345703 55.79736328 C4.46558577 52.2248414 8.22174804 49.57663681 12.27490234 47.08447266 C14.67166761 45.57776004 16.82610028 43.80811927 19 42 C18.3045656 38.99615946 18.3045656 38.99615946 17 36 C15.09821215 35.39938767 15.09821215 35.39938767 13 35 C11.64172029 33.35360035 10.30745749 31.68704193 9 30 C8.01 29.67 7.02 29.34 6 29 C5.67 28.34 5.34 27.68 5 27 C3.27691874 26.03905084 1.55314894 25.07929181 -0.17578125 24.12890625 C-2.84636757 22.47623078 -4.81169091 20.24168248 -7 18 C-9.11234957 16.39793713 -11.25450023 14.853132 -13.42578125 13.33203125 C-13.94527344 12.89246094 -14.46476563 12.45289063 -15 12 C-15 11.34 -15 10.68 -15 10 C-10.05 10 -5.1 10 0 10 C0 6.7 0 3.4 0 0 Z " fill="#293234" transform="translate(550,284)"/>
<path d="M0 0 C1.28648438 -0.03738281 2.57296875 -0.07476562 3.8984375 -0.11328125 C9.05488728 0.47587287 11.87014356 2.55764356 15.48046875 6.16796875 C18.38239203 11.60536084 17.27376545 19.83652849 15.625 25.625 C15.295 26.511875 14.965 27.39875 14.625 28.3125 C13.965 28.3125 13.305 28.3125 12.625 28.3125 C12.3775 28.869375 12.13 29.42625 11.875 30 C7.83354237 37.47669661 1.5994944 41.6543352 -6.375 44.3125 C-12.71013802 44.98645085 -20.7595402 45.17144023 -25.98046875 41.04296875 C-29.84858098 36.58976392 -29.9979378 32.02889932 -29.7265625 26.30859375 C-28.80698458 18.4717464 -26.27832948 12.6433083 -20.375 7.3125 C-13.42028887 1.96365099 -8.80566792 0.16697374 0 0 Z " fill="#293336" transform="translate(120.375,379.6875)"/>
<path d="M0 0 C1.05832031 -0.01417969 2.11664063 -0.02835937 3.20703125 -0.04296875 C7.4058774 0.28171267 9.54026903 1.73149636 12.9375 4.125 C15.1875 7.1875 15.1875 7.1875 15.1875 18.1875 C2.6475 18.1875 -9.8925 18.1875 -22.8125 18.1875 C-21.58950956 12.07254781 -19.84652374 8.74547563 -14.875 4.9375 C-12.21864832 3.41958475 -9.67242096 2.24975636 -6.8125 1.1875 C-5.02188728 -0.60311272 -2.41572258 0.01460534 0 0 Z " fill="#121019" transform="translate(369.8125,340.8125)"/>
<path d="M0 0 C1.49594333 4.67482292 1.54799337 9.35601989 0 14 C6.63872287 13.88245729 13.27727975 13.75762474 19.91577148 13.62768555 C22.17485433 13.5843322 24.43397003 13.54265742 26.69311523 13.50268555 C29.93743804 13.44499287 33.1815954 13.38129531 36.42578125 13.31640625 C37.94465691 13.29133751 37.94465691 13.29133751 39.49421692 13.26576233 C40.43496567 13.24581711 41.37571442 13.22587189 42.3449707 13.20532227 C43.58740288 13.18200584 43.58740288 13.18200584 44.85493469 13.15821838 C47.18553247 13.07459277 47.18553247 13.07459277 50 12 C50.66 11.01 51.32 10.02 52 9 C51.125 13.875 51.125 13.875 50 15 C48.4093669 15.09854422 46.81438523 15.12798694 45.22070312 15.12939453 C43.69407043 15.13412277 43.69407043 15.13412277 42.13659668 15.13894653 C41.02933228 15.1369223 39.92206787 15.13489807 38.78125 15.1328125 C37.65303833 15.13376923 36.52482666 15.13472595 35.36242676 15.13571167 C32.97159774 15.13639368 30.58076689 15.13453797 28.18994141 15.13037109 C24.51590849 15.12502316 20.84199783 15.13031543 17.16796875 15.13671875 C14.85156223 15.13605797 12.53515578 15.13477682 10.21875 15.1328125 C9.1114856 15.13483673 8.00422119 15.13686096 6.86340332 15.13894653 C5.84564819 15.13579437 4.82789307 15.13264221 3.77929688 15.12939453 C2.87852417 15.12859894 1.97775146 15.12780334 1.04968262 15.12698364 C-1 15 -1 15 -2 14 C-2.26582874 8.7720347 -1.97153141 4.92882852 0 0 Z " fill="#7E7F81" transform="translate(138,247)"/>
<path d="M0 0 C1 2 1 2 0.00390625 5.4765625 C-0.46900047 6.86197936 -0.94981644 8.24471547 -1.4375 9.625 C-1.68048828 10.33140625 -1.92347656 11.0378125 -2.17382812 11.765625 C-2.77587205 13.51273287 -3.38708017 15.25667786 -4 17 C-4.66 17 -5.32 17 -6 17 C-6.103125 17.804375 -6.20625 18.60875 -6.3125 19.4375 C-7.15100373 23.78247386 -8.52821659 27.83457527 -10 32 C-10.33 32 -10.66 32 -11 32 C-11.9305626 21.50532184 -11.9305626 21.50532184 -9.8046875 18.06640625 C-8.75130837 17.00508707 -7.68157629 15.95979591 -6.59765625 14.9296875 C-3.84161876 11.60087938 -2.96476114 7.56792186 -1.76171875 3.4765625 C-1 1 -1 1 0 0 Z " fill="#98999A" transform="translate(435,171)"/>
<path d="M0 0 C1.65 0.33 3.3 0.66 5 1 C4.01 4.63 3.02 8.26 2 12 C0.68 11.67 -0.64 11.34 -2 11 C-3.15717541 6.94988606 -2.88174925 4.76349849 -1 1 C-0.67 0.67 -0.34 0.34 0 0 Z " fill="#09090F" transform="translate(380,187)"/>
<path d="M0 0 C2.97 0 5.94 0 9 0 C9 1.65 9 3.3 9 5 C3.58461538 7.21538462 3.58461538 7.21538462 0.625 6.125 C0.08875 5.75375 -0.4475 5.3825 -1 5 C-0.67 3.35 -0.34 1.7 0 0 Z " fill="#D1D1CE" transform="translate(331,104)"/>
<path d="M0 0 C0.66 0.33 1.32 0.66 2 1 C1.649375 1.9075 1.29875 2.815 0.9375 3.75 C-0.16346046 7.49135236 -0.16346046 7.49135236 1 11 C1.99 11.33 2.98 11.66 4 12 C4.12375 10.9275 4.2475 9.855 4.375 8.75 C4.89643936 5.62136385 5.40088254 3.66519576 7 1 C8.40907283 3.81814566 7.50872691 5.17277204 6.5625 8.125 C6.27503906 9.03507813 5.98757813 9.94515625 5.69140625 10.8828125 C5.46324219 11.58148438 5.23507812 12.28015625 5 13 C3.35 13 1.7 13 0 13 C-4 6.5 -4 6.5 -4 2 C-2.125 0.9375 -2.125 0.9375 0 0 Z " fill="#3C3D42" transform="translate(378,187)"/>
<path d="M0 0 C0.96487274 3.0421471 1.00638764 4.9156559 0.109375 7.96875 C-0.10589844 8.70480469 -0.32117188 9.44085938 -0.54296875 10.19921875 C-0.89294922 11.33810547 -0.89294922 11.33810547 -1.25 12.5 C-1.46785156 13.25925781 -1.68570312 14.01851562 -1.91015625 14.80078125 C-3.08768291 18.73275624 -4.19124994 21.89385287 -7 25 C-6.39681805 19.33008969 -4.89425505 14.36260936 -3 9 C-2.43442996 7.31352645 -1.87181804 5.62605732 -1.3125 3.9375 C-0.875 2.625 -0.4375 1.3125 0 0 Z " fill="#7E7E81" transform="translate(401,136)"/>
<path d="M0 0 C2.97 0.495 2.97 0.495 6 1 C4.82744291 4.33727786 3.81131596 6.77437487 1 9 C0.34 9 -0.32 9 -1 9 C-0.67 6.03 -0.34 3.06 0 0 Z " fill="#CED1CF" transform="translate(242,149)"/>
<path d="M0 0 C0.66 0 1.32 0 2 0 C1.60292873 5.85680126 0.99019359 8.52614658 -3 13 C-4.24016669 15.6794645 -4.24016669 15.6794645 -5 18 C-6.43410153 14.21180727 -5.51009497 11.93478721 -4.0625 8.25 C-3.49208984 6.77273437 -3.49208984 6.77273437 -2.91015625 5.265625 C-2.60980469 4.51796875 -2.30945313 3.7703125 -2 3 C-1.34 3 -0.68 3 0 3 C0 2.01 0 1.02 0 0 Z " fill="#ADAEAD" transform="translate(151,210)"/>
<path d="M0 0 C0 5.78489526 -4.39583785 9.81137913 -8 14 C-8.99 13.67 -9.98 13.34 -11 13 C-7.37 8.71 -3.74 4.42 0 0 Z " fill="#3E3C42" transform="translate(228,175)"/>
<path d="M0 0 C0 0.99 0 1.98 0 3 C-0.48895752 3.45608643 -0.97791504 3.91217285 -1.48168945 4.38208008 C-3.5496165 6.58567431 -3.34716789 7.90576582 -3.29296875 10.88671875 C-3.28330078 11.82451172 -3.27363281 12.76230469 -3.26367188 13.72851562 C-3.23853516 14.70498047 -3.21339844 15.68144531 -3.1875 16.6875 C-3.17396484 17.67556641 -3.16042969 18.66363281 -3.14648438 19.68164062 C-3.11112203 22.12164231 -3.06177033 24.56054719 -3 27 C-3.66 27 -4.32 27 -5 27 C-5.14528105 23.25040783 -5.23406281 19.50153895 -5.3125 15.75 C-5.35439453 14.68652344 -5.39628906 13.62304688 -5.43945312 12.52734375 C-5.56390832 4.61199352 -5.56390832 4.61199352 -2.48046875 1.265625 C-1.25263672 0.63914062 -1.25263672 0.63914062 0 0 Z " fill="#21262C" transform="translate(555,338)"/>
<path d="M0 0 C1.28132813 0.10183594 2.56265625 0.20367187 3.8828125 0.30859375 C4.87023437 0.39238281 5.85765625 0.47617187 6.875 0.5625 C6.875 1.2225 6.875 1.8825 6.875 2.5625 C1.595 2.5625 -3.685 2.5625 -9.125 2.5625 C-9.125 1.9025 -9.125 1.2425 -9.125 0.5625 C-6.07230154 -0.96384923 -3.36654311 -0.27544444 0 0 Z " fill="#D4D4D2" transform="translate(282.125,264.4375)"/>
<path d="M0 0 C3 2 3 2 4 5 C4.1214813 7.53415636 4.18510284 10.0286978 4.1875 12.5625 C4.19974609 13.24763672 4.21199219 13.93277344 4.22460938 14.63867188 C4.22987533 16.42734112 4.12200021 18.21548848 4 20 C3.34 20.66 2.68 21.32 2 22 C1.67 21.01 1.34 20.02 1 19 C1.66 19 2.32 19 3 19 C3 14.71 3 10.42 3 6 C2.34 6 1.68 6 1 6 C0.67 4.02 0.34 2.04 0 0 Z " fill="#AEAFAE" transform="translate(482,221)"/>
<path d="M0 0 C-1.06737018 3.09537351 -1.97518567 3.98455997 -4.8125 5.75 C-7.86558893 6.94728978 -9.77308179 7.28472808 -13 7 C-11.60643954 4.21287908 -9.83494327 3.73536671 -7.0625 2.375 C-6.16660156 1.92898438 -5.27070313 1.48296875 -4.34765625 1.0234375 C-2 0 -2 0 0 0 Z " fill="#48454C" transform="translate(470,262)"/>
<path d="M0 0 C1.27182008 2.54364016 0.82067275 3.24463053 0.00390625 5.9140625 C-0.33930664 7.05488281 -0.33930664 7.05488281 -0.68945312 8.21875 C-0.93630859 9.0128125 -1.18316406 9.806875 -1.4375 10.625 C-1.68048828 11.42679688 -1.92347656 12.22859375 -2.17382812 13.0546875 C-2.77604073 15.03844668 -3.38718689 17.01948982 -4 19 C-5.41801823 13.74511216 -4.73371349 9.20114046 -3 4 C-2.34 4 -1.68 4 -1 4 C-0.67 2.68 -0.34 1.36 0 0 Z " fill="#8E9090" transform="translate(310,200)"/>
<path d="M0 0 C0.66 0.99 1.32 1.98 2 3 C0.90220176 4.15193623 -0.20349446 5.29634937 -1.3125 6.4375 C-1.92738281 7.07558594 -2.54226562 7.71367187 -3.17578125 8.37109375 C-5 10 -5 10 -8 11 C-6.63055898 8.05043472 -5.12169591 5.47531189 -3 3 C-2.34 3 -1.68 3 -1 3 C-0.67 2.01 -0.34 1.02 0 0 Z " fill="#3B3A40" transform="translate(216,189)"/>
<path d="M0 0 C0.33 0.66 0.66 1.32 1 2 C-0.07192184 3.3218362 -1.15802695 4.63217927 -2.25 5.9375 C-2.85328125 6.66839844 -3.4565625 7.39929688 -4.078125 8.15234375 C-6.10741134 10.10326334 -7.254407 10.61731779 -10 11 C-8.55218207 7.55571735 -6.72305391 5.63869038 -3.875 3.25 C-3.15054688 2.63640625 -2.42609375 2.0228125 -1.6796875 1.390625 C-0.84824219 0.70226562 -0.84824219 0.70226562 0 0 Z " fill="#A5A9A8" transform="translate(200,152)"/>
<path d="M0 0 C0.66 0 1.32 0 2 0 C2 2.97 2 5.94 2 9 C0.35 9 -1.3 9 -3 9 C-2.01 6.03 -1.02 3.06 0 0 Z " fill="#09050E" transform="translate(227,178)"/>
<path d="M0 0 C2.16874252 0.50603992 3.99967627 0.99983813 6 2 C5.67 2.99 5.34 3.98 5 5 C3.35 5 1.7 5 0 5 C-0.33 4.01 -0.66 3.02 -1 2 C-0.67 1.34 -0.34 0.68 0 0 Z " fill="#D2D5D2" transform="translate(472,250)"/>
<path d="M0 0 C1.41000664 2.82001327 1.24548451 4.87007255 1 8 C-0.41511093 10.83022185 -1.76583825 12.76583825 -4 15 C-3.32584613 9.7415998 -1.75734451 4.97361654 0 0 Z " fill="#878789" transform="translate(270,188)"/>
<path d="M0 0 C1.1171875 1.703125 1.1171875 1.703125 2 4 C1.3203125 6.359375 1.3203125 6.359375 0.125 8.75 C-0.26429688 9.54921875 -0.65359375 10.3484375 -1.0546875 11.171875 C-1.36664063 11.77515625 -1.67859375 12.3784375 -2 13 C-2.33 13 -2.66 13 -3 13 C-2.52060632 8.28596212 -2.03165952 4.33420699 0 0 Z " fill="#CDCDCC" transform="translate(280,160)"/>
<path d="M0 0 C0.66 0.33 1.32 0.66 2 1 C0.54782324 2.50596108 -0.91192861 4.00462104 -2.375 5.5 C-3.18710938 6.3353125 -3.99921875 7.170625 -4.8359375 8.03125 C-7 10 -7 10 -9 10 C-7.61811547 6.78956118 -6.07578097 4.95063635 -3.375 2.75 C-2.74335937 2.22921875 -2.11171875 1.7084375 -1.4609375 1.171875 C-0.73777344 0.59179688 -0.73777344 0.59179688 0 0 Z " fill="#21282C" transform="translate(105,383)"/>
<path d="M0 0 C4.62 0 9.24 0 14 0 C14 0.33 14 0.66 14 1 C10.7 1.33 7.4 1.66 4 2 C4 2.66 4 3.32 4 4 C2.68 3.34 1.36 2.68 0 2 C0 1.34 0 0.68 0 0 Z " fill="#1D2028" transform="translate(535,294)"/>
<path d="M0 0 C0.33 1.32 0.66 2.64 1 4 C-1.31 5.98 -3.62 7.96 -6 10 C-6 6.41087588 -5.33563446 5.89142971 -3 3.3125 C-2.443125 2.68988281 -1.88625 2.06726563 -1.3125 1.42578125 C-0.879375 0.95527344 -0.44625 0.48476562 0 0 Z " fill="#424148" transform="translate(244,156)"/>
<path d="M0 0 C0.99 0.33 1.98 0.66 3 1 C0.25604436 3.94721162 -2.38337216 6.19168608 -6 8 C-6.66 7.67 -7.32 7.34 -8 7 C-6.74057614 5.80040625 -5.46704714 4.61560557 -4.1875 3.4375 C-3.12595703 2.44556641 -3.12595703 2.44556641 -2.04296875 1.43359375 C-1.36878906 0.96050781 -0.69460937 0.48742187 0 0 Z " fill="#A1A4A3" transform="translate(221,132)"/>
<path d="M0 0 C0.66 0.33 1.32 0.66 2 1 C0.26440562 4.057952 -1.38472619 6.63379989 -4 9 C-4.99 8.67 -5.98 8.34 -7 8 C-4.69 5.36 -2.38 2.72 0 0 Z " fill="#AAABAA" transform="translate(231,121)"/>
<path d="M0 0 C1.125 1.6875 1.125 1.6875 2 4 C1.125 6.75 1.125 6.75 0 9 C-0.66 9 -1.32 9 -2 9 C-2.33 9.99 -2.66 10.98 -3 12 C-2.49202991 7.6822542 -1.80317221 3.96697886 0 0 Z " fill="#4D4D54" transform="translate(449,132)"/>
<path d="M0 0 C0.66 0.33 1.32 0.66 2 1 C2 3.64 2 6.28 2 9 C1.34 8.34 0.68 7.68 0 7 C-0.66 7.66 -1.32 8.32 -2 9 C-1.51421457 5.87709365 -1.0013988 3.00419641 0 0 Z " fill="#1B1A22" transform="translate(406,260)"/>
<path d="M0 0 C0.33 0.99 0.66 1.98 1 3 C-0.2065625 3.8971875 -0.2065625 3.8971875 -1.4375 4.8125 C-4.22327984 6.80947276 -4.22327984 6.80947276 -5 10 C-5.66 10 -6.32 10 -7 10 C-5.6062718 5.56541027 -3.39417765 3.12621626 0 0 Z " fill="#8E9093" transform="translate(439,226)"/>
<path d="M0 0 C0.66 0.99 1.32 1.98 2 3 C1.67 3.99 1.34 4.98 1 6 C-0.98 6 -2.96 6 -5 6 C-3.35 4.02 -1.7 2.04 0 0 Z " fill="#07050B" transform="translate(215,194)"/>
<path d="M0 0 C0 4.07546013 -1.55304448 5.80536362 -4 9 C-6.25 10.375 -6.25 10.375 -8 11 C-6.63629701 8.00779732 -5.05091917 5.70973471 -2.875 3.25 C-2.33617187 2.63640625 -1.79734375 2.0228125 -1.2421875 1.390625 C-0.62730469 0.70226562 -0.62730469 0.70226562 0 0 Z " fill="#49494E" transform="translate(271,124)"/>
<path d="M0 0 C1.04478472 3.39555034 1.30152754 6.45705143 1 10 C-0.515625 11.68359375 -0.515625 11.68359375 -2 13 C-1.85851011 11.3954444 -1.71164314 9.79136233 -1.5625 8.1875 C-1.48128906 7.29417969 -1.40007812 6.40085938 -1.31640625 5.48046875 C-1 3 -1 3 0 0 Z " fill="#211F26" transform="translate(310,202)"/>
<path d="M0 0 C0.33 0 0.66 0 1 0 C1.75 3.25 1.75 3.25 2 7 C0.0625 9.4375 0.0625 9.4375 -2 11 C-1.85892253 9.54119891 -1.71197585 8.08296449 -1.5625 6.625 C-1.48128906 5.81289062 -1.40007812 5.00078125 -1.31640625 4.1640625 C-1 2 -1 2 0 0 Z " fill="#818285" transform="translate(283,143)"/>
<path d="M0 0 C0.66 0.66 1.32 1.32 2 2 C-1.465 4.97 -1.465 4.97 -5 8 C-5.66 7.67 -6.32 7.34 -7 7 C-4.69 4.69 -2.38 2.38 0 0 Z " fill="#ABAFAD" transform="translate(243,110)"/>
<path d="M0 0 C0.33 0.99 0.66 1.98 1 3 C-1.31 4.98 -3.62 6.96 -6 9 C-6.66 8.67 -7.32 8.34 -8 8 C-5.36 5.36 -2.72 2.72 0 0 Z " fill="#979A98" transform="translate(256,97)"/>
<path d="M0 0 C0.66 0 1.32 0 2 0 C2 0.66 2 1.32 2 2 C2.66 2 3.32 2 4 2 C3.67 3.65 3.34 5.3 3 7 C2.01 6.67 1.02 6.34 0 6 C0 4.02 0 2.04 0 0 Z " fill="#CECFCE" transform="translate(306,197)"/>
<path d="M0 0 C0.93423645 3.01031744 1.04449911 3.86650268 0 7 C-0.99 7.33 -1.98 7.66 -3 8 C-2.74438677 5.6568787 -2.40729228 3.32156597 -2 1 C-1.34 0.67 -0.68 0.34 0 0 Z " fill="#0C0911" transform="translate(203,218)"/>
<path d="M0 0 C0.66 0.33 1.32 0.66 2 1 C0.29374499 3.78388975 -0.47626739 4.85384206 -3.6875 5.75 C-4.8321875 5.87375 -4.8321875 5.87375 -6 6 C-4 4 -2 2 0 0 Z " fill="#97989A" transform="translate(446,220)"/>
<path d="M0 0 C0.66 0.33 1.32 0.66 2 1 C-1.5 5.875 -1.5 5.875 -6 7 C-4.02 4.69 -2.04 2.38 0 0 Z " fill="#999D9D" transform="translate(188,163)"/>
<path d="M0 0 C0 2.83967231 -0.40267181 5.23735711 -1 8 C-2.32 7.34 -3.64 6.68 -5 6 C-3.35 4.02 -1.7 2.04 0 0 Z " fill="#3C3B41" transform="translate(290,101)"/>
<path d="M0 0 C0.66 0.33 1.32 0.66 2 1 C-0.31 3.31 -2.62 5.62 -5 8 C-5 5 -5 5 -2.5 2.3125 C-1.675 1.549375 -0.85 0.78625 0 0 Z " fill="#17181F" transform="translate(355,346)"/>
</svg>
